# 3ds Max Wavefront OBJ Exporter v0.99 - (c)2007 guruware
# File Created: 23.11.2021 11:10:43

mtllib box.mtl

#
# object Box001
#

v  -9.8061 10.4089 -10.4140
v  -9.8061 10.4089 10.4140
v  9.8061 10.4089 -10.4140
v  9.8061 10.4089 10.4140
v  9.8061 -10.0842 10.4140
v  -9.8061 -10.0842 10.4140
v  9.8061 -10.0842 -10.4140
v  -9.8061 -10.0842 -10.4140
# 8 vertices

vn 0.0000 1.0000 -0.0000
vn 0.0000 -1.0000 -0.0000
vn 0.0000 0.0000 1.0000
vn 1.0000 0.0000 -0.0000
vn 0.0000 0.0000 -1.0000
vn -1.0000 0.0000 -0.0000
# 6 vertex normals

vt 0.0000 1.0000 0.0000
vt 0.0000 0.0000 0.0000
vt 1.0000 1.0000 0.0000
vt 1.0000 0.0000 0.0000
# 4 texture coords

o Box001
g Box001
usemtl 02___Default
f 1/1/1 2/2/1 3/3/1 
f 4/4/1 3/3/1 2/2/1 
f 5/2/2 6/4/2 7/1/2 
f 8/3/2 7/1/2 6/4/2 
f 4/4/3 2/2/3 5/3/3 
f 6/1/3 5/3/3 2/2/3 
f 3/4/4 4/2/4 7/3/4 
f 5/1/4 7/3/4 4/2/4 
f 1/4/5 3/2/5 8/3/5 
f 7/1/5 8/3/5 3/2/5 
f 2/4/6 1/2/6 6/3/6 
f 8/1/6 6/3/6 1/2/6 
# 12 faces

